<?xml version="1.0" encoding="UTF-8"?>
<svg  viewBox="0 0 600 556" version="1.1" xmlns="http://www.w3.org/2000/svg" xmlns:xlink="http://www.w3.org/1999/xlink">
    <!-- Generator: Sketch 53.1 (72631) - https://sketchapp.com -->
    <title>bias-non-sampling copy 2</title>
    <desc>Created with Sketch.</desc>
    <g class="" id="bias-non-sampling-copy-2" stroke="none" stroke-width="1" fill="none" fill-rule="evenodd">
        <rect fill="#222222" x="0" y="0" width="600" height="556"></rect>
        <rect class="" id="Rectangle" fill="#4D00FF" fill-rule="nonzero" transform="translate(368.000000, 408.500000) rotate(-90.000000) translate(-368.000000, -408.500000) " x="359" y="372" width="18" height="73"></rect>
        <rect class="" id="Rectangle" fill="#4D00FF" fill-rule="nonzero" transform="translate(85.500000, 315.500000) rotate(-90.000000) translate(-85.500000, -315.500000) " x="-16" y="279" width="203" height="73"></rect>
        <rect class="" id="Rectangle" fill="#D2D2D2" fill-rule="nonzero" transform="translate(514.000000, 282.500000) rotate(-90.000000) translate(-514.000000, -282.500000) " x="379" y="246" width="270" height="73"></rect>
        <rect class="" id="Rectangle" fill="#D2D2D2" fill-rule="nonzero" transform="translate(231.000000, 300.500000) rotate(-90.000000) translate(-231.000000, -300.500000) " x="114" y="264" width="234" height="73"></rect>
        <rect class="" id="Rectangle" fill="#666666" fill-rule="nonzero" transform="translate(441.000000, 336.500000) rotate(-90.000000) translate(-441.000000, -336.500000) " x="360" y="300" width="162" height="73"></rect>
        <rect class="" id="Rectangle" fill="#666666" fill-rule="nonzero" transform="translate(158.500000, 410.500000) rotate(-270.000000) translate(-158.500000, -410.500000) " x="152" y="374" width="13" height="73"></rect>
        <text class="" id="Even-big-data-system" font-family="Graphik-Bold, Graphik" font-size="24" font-weight="bold" fill="#FFFFFF">
            <tspan x="19" y="37">Even big data systems are susceptible to bias</tspan>
        </text>
        <text class="" id="In-the-ImageNet-data" font-family="Graphik-Regular, Graphik" font-size="18" font-weight="normal" fill="#FFFFFF">
            <tspan x="19" y="64">In the ImageNet dataset, 45% of the data comes from US sources, </tspan>
            <tspan x="19" y="83.8000036">while the US accounts for 4% of the world population. Only 3% of</tspan>
            <tspan x="19" y="103.600007">the data was contributed by sources in China or India.</tspan>
        </text>
        <text class="S A" id="U" font-family="Graphik-Regular, Graphik" font-size="14" font-weight="normal" fill="#FFFFFF">
            <tspan x="58" y="436">U.S.A</tspan>
        </text>
        <text class="" id="45%" font-family="Graphik-Medium, Graphik" font-size="14" font-weight="400" fill="#FFFFFF">
            <tspan x="67" y="206">45%</tspan>
        </text>
        <text class="" id="4%" font-family="Graphik-Medium, Graphik" font-size="14" font-weight="400" fill="#FFFFFF">
            <tspan x="359" y="391">4%</tspan>
        </text>
        <text class="" id="36%" font-family="Graphik-Medium, Graphik" font-size="14" font-weight="400" fill="#FFFFFF">
            <tspan x="432" y="247">36%</tspan>
        </text>
        <text class="" id="60%" font-family="Graphik-Medium, Graphik" font-size="14" font-weight="400" fill="#FFFFFF">
            <tspan x="500" y="140">60%</tspan>
        </text>
        <text class="" id="3%" font-family="Graphik-Medium, Graphik" font-size="14" font-weight="400" fill="#FFFFFF">
            <tspan x="147" y="393">3%</tspan>
        </text>
        <text class="" id="52%" font-family="Graphik-Medium, Graphik" font-size="14" font-weight="400" fill="#FFFFFF">
            <tspan x="222" y="173">52%</tspan>
        </text>
        <text class="" id="Source:-Shankar-2017" font-family="Graphik-Bold, Graphik" font-size="12" font-weight="bold" fill="#FFFFFF">
            <tspan x="22" y="528">Source: Shankar 2017</tspan>
        </text>
        <text class="" id="Rest-of-world-Copy" font-family="Graphik-Regular, Graphik" font-size="14" font-weight="normal" fill="#FFFFFF">
            <tspan x="487" y="436">Rest</tspan>
            <tspan x="487" y="450">of world</tspan>
        </text>
        <text class="" id="Rest-of-world-Copy-2" font-family="Graphik-Regular, Graphik" font-size="14" font-weight="normal" fill="#FFFFFF">
            <tspan x="203" y="436">Rest</tspan>
            <tspan x="203" y="450">of world</tspan>
        </text>
        <text class="" id="China-and-India" font-family="Graphik-Regular, Graphik" font-size="14" font-weight="normal" fill="#FFFFFF">
            <tspan x="126" y="436">China </tspan>
            <tspan x="126" y="450">and India</tspan>
        </text>
        <text class="" id="Contributions-to-Ima" font-family="Graphik-Bold, Graphik" font-size="14" font-weight="bold" fill="#FFFFFF">
            <tspan x="67.821" y="480">Contributions to ImageNet  </tspan>
        </text>
        <text class="" id="Proportion-of-genera" font-family="Graphik-Bold, Graphik" font-size="14" font-weight="bold" fill="#FFFFFF">
            <tspan x="334.444" y="480">Proportion of general population</tspan>
        </text>
        <text class="" id="China-and-India-Copy" font-family="Graphik-Regular, Graphik" font-size="14" font-weight="normal" fill="#FFFFFF">
            <tspan x="411" y="436">China </tspan>
            <tspan x="411" y="450">and India</tspan>
        </text>
        <text class="S A Copy" id="US.A-Copy" font-family="Graphik-Regular, Graphik" font-size="14" font-weight="normal" fill="#FFFFFF">
            <tspan x="342" y="436">U.S.A</tspan>
        </text>
        <g class="" id="Logo/Full" transform="translate(424.000000, 515.000000)" fill="#FFFFFF">
            <path d="M0,14.7181208 L1.53262993,12.5838926 L1.53262993,3.06040268 L0,0.926174497 L4.97069168,0.926174497 C6.97967956,0.926174497 10.7284095,1.26845638 10.7284095,4.61073826 C10.7284095,7.08724832 8.30519734,8.47651007 6.13051973,8.73825503 C5.46776084,8.83892617 4.70144588,8.87919463 4.22508792,8.87919463 L4.22508792,12.5838926 L6.0890973,14.7181208 L0,14.7181208 Z M4.22508792,1.53020134 L4.22508792,8.19463087 C6.48261039,8.19463087 7.78741696,7.10738255 7.78741696,4.85234899 C7.78741696,2.59731544 6.44118796,1.53020134 4.22508792,1.53020134 Z M17.9566237,14.7181208 L17.9566237,13.0268456 C17.1695975,13.7718121 15.7198124,14.9194631 14.3528722,14.9194631 C12.9237984,14.9194631 11.8675264,14.2348993 11.8675264,12.6040268 C11.8675264,10.5503356 14.3735834,9.5033557 17.9566237,8.27516779 C17.9566237,6.66442953 17.9152013,5.41610738 16.2168816,5.41610738 C14.5599844,5.41610738 13.565846,6.54362416 12.5095741,8.0738255 L12.3645955,8.0738255 L12.3645955,4.85234899 L20.8976163,4.85234899 L20.4419695,6.58389262 L20.4419695,13.409396 L20.4626807,13.409396 L21.9953107,14.7181208 L17.9566237,14.7181208 Z M17.9566237,12.4832215 L17.9566237,8.83892617 C14.7049629,10.1073826 14.6014068,10.9731544 14.6014068,11.9395973 C14.6014068,12.9060403 15.2848769,13.3288591 16.1547479,13.3288591 C16.7967956,13.3288591 17.4388433,13.0067114 17.9566237,12.4832215 Z M31.6260258,8.41610738 L31.4603361,8.41610738 C30.5490426,6.30201342 29.3270809,5.59731544 28.374365,5.59731544 C26.9452911,5.59731544 26.9452911,6.60402685 26.9452911,8.65771812 L26.9452911,12.9865772 L28.8714342,14.7181208 L22.9273154,14.7181208 L24.4599453,12.9865772 L24.4599453,6.40268456 L23.0515826,4.85234899 L31.6260258,4.85234899 L31.6260258,8.41610738 Z M38.5435717,14.7181208 L38.5435717,13.0268456 C37.7565455,13.7718121 36.3067605,14.9194631 34.9398202,14.9194631 C33.5107464,14.9194631 32.4544744,14.2348993 32.4544744,12.6040268 C32.4544744,10.5503356 34.9605315,9.5033557 38.5435717,8.27516779 C38.5435717,6.66442953 38.5021493,5.41610738 36.8038296,5.41610738 C35.1469324,5.41610738 34.1527941,6.54362416 33.0965221,8.0738255 L32.9515436,8.0738255 L32.9515436,4.85234899 L41.4845643,4.85234899 L41.0289175,6.58389262 L41.0289175,13.409396 L41.0496288,13.409396 L42.5822587,14.7181208 L38.5435717,14.7181208 Z M38.5435717,12.4832215 L38.5435717,8.83892617 C35.2919109,10.1073826 35.1883548,10.9731544 35.1883548,11.9395973 C35.1883548,12.9060403 35.8718249,13.3288591 36.741696,13.3288591 C37.3837436,13.3288591 38.0257913,13.0067114 38.5435717,12.4832215 Z M47.4286831,4.65100671 L47.4286831,6.12080537 C48.2364205,5.2147651 49.25127,4.61073826 50.5767878,4.61073826 C52.0887065,4.61073826 53.0414224,5.29530201 53.4349355,6.38255034 C54.1598281,5.41610738 55.4853458,4.61073826 56.852286,4.61073826 C58.96483,4.61073826 59.9589683,5.93959732 59.9589683,7.83221477 L59.9589683,12.9865772 L59.9796796,12.9865772 L61.5123095,14.7181208 L55.9617038,14.7181208 L57.4736225,13.0067114 L57.4736225,8.51677852 C57.4736225,6.96644295 57.2457991,5.97986577 55.6510356,5.97986577 C54.8847206,5.97986577 54.2633841,6.30201342 53.6213365,7.00671141 C53.6627589,7.26845638 53.6834701,7.55033557 53.6834701,7.83221477 L53.6834701,12.9865772 L53.7041813,12.9865772 L55.2368113,14.7181208 L49.6862055,14.7181208 L51.1981243,13.0067114 L51.1981243,8.51677852 C51.1981243,6.96644295 50.9703009,5.97986577 49.3755373,5.97986577 C48.6506448,5.97986577 48.0500195,6.26174497 47.4286831,6.90604027 L47.4286831,12.9865772 L48.961313,14.7181208 L43.4107073,14.7181208 L44.9433372,12.9865772 L44.9433372,7.55033557 L43.5349746,6 L47.4286831,4.65100671 Z M71.4744041,9.02013423 L71.4744041,9.04026846 L64.8261039,9.04026846 C65.0539273,11.6375839 66.4830012,12.7248322 68.098476,12.7248322 C69.5068386,12.7248322 70.7495115,12.0402685 71.0601798,11.1946309 L71.370848,11.3154362 C70.6252442,13.147651 69.1547479,15 66.6901133,15 C63.9769441,15 62.4443142,12.6442953 62.4443142,10.2281879 C62.4443142,7.63087248 64.1012114,4.65100671 67.4771395,4.65100671 C69.9417741,4.65100671 71.4536928,6.26174497 71.4744041,8.97986577 L71.4951153,9.02013423 L71.4744041,9.02013423 Z M68.8026573,8.43624161 L68.8026573,8.25503356 C68.8026573,6.10067114 67.912075,5.25503356 67.0007816,5.25503356 C65.4267292,5.25503356 64.7846815,7.08724832 64.7846815,8.29530201 L64.7846815,8.43624161 L68.8026573,8.43624161 Z M76.1758499,1.99328859 L76.1758499,4.85234899 L80.1524033,4.85234899 L79.6967565,5.93959732 L76.1758499,5.93959732 L76.1758499,10.8926174 C76.1758499,12.8255034 76.6314967,13.3489933 77.8534584,13.3489933 C78.4747948,13.3489933 79.4275107,13.0469799 79.8831575,12.1812081 L80.1316921,12.5033557 C79.1375537,14.1342282 78.0191481,14.9597315 76.3415397,14.9597315 C74.9124658,14.9597315 73.6905041,14.1543624 73.6905041,11.8590604 L73.6905041,6.12080537 L72.3235639,4.85234899 L76.1758499,1.99328859 Z M90.031653,8.41610738 L89.8659633,8.41610738 C88.9546698,6.30201342 87.7327081,5.59731544 86.7799922,5.59731544 C85.3509183,5.59731544 85.3509183,6.60402685 85.3509183,8.65771812 L85.3509183,12.9865772 L87.2770614,14.7181208 L81.3329426,14.7181208 L82.8655725,12.9865772 L82.8655725,6.40268456 L81.4572098,4.85234899 L90.031653,4.85234899 L90.031653,8.41610738 Z M91.7921063,1.85234899 L93.5732708,0 L95.3337241,1.85234899 L93.5732708,3.72483221 L91.7921063,1.85234899 Z M90.9843689,6 L94.8780774,4.65100671 L94.8780774,12.9865772 L96.4107073,14.7181208 L90.8601016,14.7181208 L92.3927315,12.9865772 L92.3927315,7.55033557 L90.9843689,6 Z M105.502931,8.0738255 L105.357952,8.0738255 C104.63306,6.6442953 103.701055,5.55704698 102.106292,5.55704698 C100.511528,5.55704698 99.9316139,6.98657718 99.9316139,8.3557047 C99.9316139,11.4966443 101.381399,12.5637584 103.017585,12.5637584 C104.446659,12.5637584 105.523642,11.4563758 105.772177,10.7516779 L106,10.8322148 C105.565064,12.4630872 104.156702,14.9597315 101.588511,14.9597315 C98.8753419,14.9597315 97.5498242,12.6040268 97.5498242,10.1879195 C97.5498242,7.79194631 99.0617429,4.85234899 103.017585,4.85234899 L105.502931,4.85234899 L105.502931,8.0738255 Z" class="" id="Parametric-Press"></path>
            <path d="M112.474777,3.12912482 L111,1 L115.756677,1 C117.169139,1 121.261128,1.34146341 121.261128,4.67575323 C121.261128,7.14634146 118.934718,8.53228121 116.857567,8.79340029 C116.234421,8.8938307 115.507418,8.93400287 115.050445,8.93400287 L115.050445,12.6298422 L116.816024,14.758967 L111,14.758967 L112.474777,12.6298422 L112.474777,3.12912482 Z M115.050445,1.6025825 L115.050445,8.25107604 C117.189911,8.25107604 118.436202,7.16642755 118.436202,4.91678623 C118.436202,2.66714491 117.169139,1.6025825 115.050445,1.6025825 Z M130.816024,8.03012912 L128.074184,7.30703013 C127.783383,7.42754663 126.017804,11.5050215 126.017804,13.5337159 L126.183976,14.758967 L123.62908,14.758967 L123.62908,7.60832138 L122.216617,6.06169297 L126.017804,4.71592539 L126.017804,11.1032999 C126.620178,8.85365854 127.637982,6.32281205 128.863501,4.63558106 L129.133531,4.63558106 L130.878338,7.94978479 L130.816024,8.03012912 Z M138.356083,10.1994261 L138.688427,10.4002869 C138.148368,12.1276901 136.320475,15 134.305638,15 C132.456973,15 131.231454,13.6542324 131.231454,10.9827834 C131.231454,8.09038737 133.350148,4.65566714 135.905045,4.65566714 C137.878338,4.65566714 138.501484,6.56384505 138.501484,6.96556671 L133.931751,10.7618364 C134.118694,12.4289813 134.679525,13.5738881 135.4273,13.5738881 C136.922849,13.5738881 138.356083,10.1994261 138.356083,10.1994261 Z M133.890208,10.2797704 L136.278932,8.09038737 C136.175074,6.06169297 135.136499,5.09756098 134.866469,5.27833572 C134.492582,5.49928264 133.848665,6.16212339 133.848665,9.3758967 C133.848665,9.69727403 133.869436,9.99856528 133.890208,10.2797704 Z M145.31454,7.88952654 L145.189911,7.90961263 C144.400593,6.72453372 143.362018,5.88091822 142.448071,5.88091822 C141.866469,5.88091822 141.721068,6.1420373 141.721068,6.64418938 C141.721068,8.05021521 145.875371,9.6169297 145.875371,11.7460545 C145.875371,13.071736 144.712166,14.758967 142.032641,14.758967 L140.329377,14.758967 L139.830861,11.3443329 L139.893175,11.1635581 C141.014837,12.7503587 142.074184,13.9956958 143.278932,13.9956958 C143.902077,13.9956958 144.234421,13.7345768 144.234421,13.1922525 C144.234421,11.2238164 140.142433,10.2195122 140.142433,8.03012912 C140.142433,6.60401722 141.451039,4.91678623 143.735905,4.91678623 L145.210682,4.91678623 L145.31454,7.88952654 Z M152.439169,7.88952654 L152.31454,7.90961263 C151.525223,6.72453372 150.486647,5.88091822 149.5727,5.88091822 C148.991098,5.88091822 148.845697,6.1420373 148.845697,6.64418938 C148.845697,8.05021521 153,9.6169297 153,11.7460545 C153,13.071736 151.836795,14.758967 149.15727,14.758967 L147.454006,14.758967 L146.95549,11.3443329 L147.017804,11.1635581 C148.139466,12.7503587 149.198813,13.9956958 150.403561,13.9956958 C151.026706,13.9956958 151.35905,13.7345768 151.35905,13.1922525 C151.35905,11.2238164 147.267062,10.2195122 147.267062,8.03012912 C147.267062,6.60401722 148.575668,4.91678623 150.860534,4.91678623 L152.335312,4.91678623 L152.439169,7.88952654 Z" class="" id="Combined-Shape"></path>
        </g>
    </g>
</svg>