<?xml version="1.0" encoding="UTF-8"?>
<svg  viewBox="0 0 583 465" version="1.1" xmlns="http://www.w3.org/2000/svg" xmlns:xlink="http://www.w3.org/1999/xlink">
    <!-- Generator: Sketch 53.1 (72631) - https://sketchapp.com -->
    <title>bias-non-sampling</title>
    <desc>Created with Sketch.</desc>
    <g class="" id="bias-non-sampling" stroke="none" stroke-width="1" fill="none" fill-rule="evenodd">
        <rect fill="#EFEFEF" x="0" y="0" width="583" height="465"></rect>
        <rect class="" id="Rectangle" fill="#000000" fill-rule="nonzero" transform="translate(378.000000, 357.500000) rotate(-90.000000) translate(-378.000000, -357.500000) " x="369" y="321" width="18" height="73"></rect>
        <rect class="" id="Rectangle" fill="#000000" fill-rule="nonzero" transform="translate(64.500000, 264.500000) rotate(-90.000000) translate(-64.500000, -264.500000) " x="-37" y="228" width="203" height="73"></rect>
        <rect class="" id="Rectangle" fill="#D2D2D2" fill-rule="nonzero" transform="translate(524.000000, 231.500000) rotate(-90.000000) translate(-524.000000, -231.500000) " x="389" y="195" width="270" height="73"></rect>
        <rect class="" id="Rectangle" fill="#D2D2D2" fill-rule="nonzero" transform="translate(210.000000, 249.500000) rotate(-90.000000) translate(-210.000000, -249.500000) " x="93" y="213" width="234" height="73"></rect>
        <rect class="" id="Rectangle" fill="#666666" fill-rule="nonzero" transform="translate(451.000000, 285.500000) rotate(-90.000000) translate(-451.000000, -285.500000) " x="370" y="249" width="162" height="73"></rect>
        <rect class="" id="Rectangle" fill="#666666" fill-rule="nonzero" transform="translate(137.500000, 359.500000) rotate(-270.000000) translate(-137.500000, -359.500000) " x="131" y="323" width="13" height="73"></rect>
        <text class="" id="Representation-in-tr" fill="#000000" font-family="Graphik-Bold, Graphik" font-size="18" font-weight="bold">
            <tspan x="15" y="28">Representation in</tspan>
            <tspan x="15" y="47.8000036">training examples</tspan>
        </text>
        <text class="S A" id="U" font-family="Graphik-Medium, Graphik" font-size="14" font-weight="400" fill="#000000">
            <tspan x="28" y="393">U.S.A</tspan>
        </text>
        <text class="" id="45%" font-family="Graphik-Light, Graphik" font-size="14" font-weight="300" fill="#000000">
            <tspan x="46" y="155">45%</tspan>
        </text>
        <text class="" id="4%" font-family="Graphik-Light, Graphik" font-size="14" font-weight="300" fill="#000000">
            <tspan x="369" y="340">4%</tspan>
        </text>
        <text class="" id="36%" font-family="Graphik-Light, Graphik" font-size="14" font-weight="300" fill="#000000">
            <tspan x="442" y="196">36%</tspan>
        </text>
        <text class="" id="60%" font-family="Graphik-Light, Graphik" font-size="14" font-weight="300" fill="#000000">
            <tspan x="516" y="88">60%</tspan>
        </text>
        <text class="" id="3%" font-family="Graphik-Light, Graphik" font-size="14" font-weight="300" fill="#000000">
            <tspan x="126" y="342">3%</tspan>
        </text>
        <text class="" id="52%" font-family="Graphik-Light, Graphik" font-size="14" font-weight="300" fill="#000000">
            <tspan x="201" y="122">52%</tspan>
        </text>
        <text class="" id="Rest-of-world" font-family="Graphik-Medium, Graphik" font-size="14" font-weight="400" fill="#000000">
            <tspan x="181" y="390">Rest</tspan>
            <tspan x="181" y="404">of world</tspan>
        </text>
        <text class="" id="Rest-of-world-Copy" font-family="Graphik-Medium, Graphik" font-size="14" font-weight="400" fill="#000000">
            <tspan x="488" y="382">Rest</tspan>
            <tspan x="488" y="396">of world</tspan>
        </text>
        <text class="" id="China-and-India" font-family="Graphik-Medium, Graphik" font-size="14" font-weight="400" fill="#000000">
            <tspan x="101" y="393">China </tspan>
            <tspan x="101" y="407">and India</tspan>
        </text>
        <text class="" id="China-and-India-Copy" font-family="Graphik-Medium, Graphik" font-size="14" font-weight="400" fill="#000000">
            <tspan x="420" y="382">China </tspan>
            <tspan x="420" y="396">and India</tspan>
        </text>
        <text class="S A Copy" id="US.A-Copy" font-family="Graphik-Medium, Graphik" font-size="14" font-weight="400" fill="#000000">
            <tspan x="342" y="382">U.S.A</tspan>
        </text>
        <text class="" id="Percent-in-the-gener" fill="#000000" font-family="Graphik-Bold, Graphik" font-size="18" font-weight="bold">
            <tspan x="321" y="28">Percent in the </tspan>
            <tspan x="321" y="47.8000036">general population</tspan>
        </text>
        <g class="" id="Logo/Full" transform="translate(238.000000, 441.000000)" fill="#222222">
            <path d="M0,10.7932886 L1.0699492,9.22818792 L1.0699492,2.2442953 L0,0.679194631 L3.47010551,0.679194631 C4.87260649,0.679194631 7.48964439,0.930201342 7.48964439,3.38120805 C7.48964439,5.19731544 5.79796796,6.21610738 4.2797968,6.40805369 C3.81711606,6.48187919 3.28214146,6.5114094 2.94958968,6.5114094 L2.94958968,9.22818792 L4.25087925,10.7932886 L0,10.7932886 Z M2.94958968,1.12214765 L2.94958968,6.00939597 C4.52559594,6.00939597 5.43649863,5.21208054 5.43649863,3.55838926 C5.43649863,1.90469799 4.49667839,1.12214765 2.94958968,1.12214765 Z M12.5357562,10.7932886 L12.5357562,9.55302013 C11.9863228,10.0993289 10.9742087,10.9409396 10.0199297,10.9409396 C9.02227433,10.9409396 8.28487691,10.4389262 8.28487691,9.24295302 C8.28487691,7.73691275 10.0343884,6.96912752 12.5357562,6.06845638 C12.5357562,4.88724832 12.5068386,3.97181208 11.3212192,3.97181208 C10.1645174,3.97181208 9.47049629,4.79865772 8.73309887,5.92080537 L8.63188746,5.92080537 L8.63188746,3.55838926 L14.5889019,3.55838926 L14.2708089,4.82818792 L14.2708089,9.83355705 L14.2852677,9.83355705 L15.3552169,10.7932886 L12.5357562,10.7932886 Z M12.5357562,9.15436242 L12.5357562,6.48187919 C10.2657288,7.41208054 10.1934349,8.04697987 10.1934349,8.7557047 C10.1934349,9.46442953 10.6705744,9.77449664 11.2778429,9.77449664 C11.7260649,9.77449664 12.1742868,9.53825503 12.5357562,9.15436242 Z M22.0785463,6.17181208 L21.9628761,6.17181208 C21.3266901,4.62147651 20.4736225,4.10469799 19.808519,4.10469799 C18.8108636,4.10469799 18.8108636,4.84295302 18.8108636,6.34899329 L18.8108636,9.52348993 L20.1555295,10.7932886 L16.0058617,10.7932886 L17.0758109,9.52348993 L17.0758109,4.69530201 L16.0926143,3.55838926 L22.0785463,3.55838926 L22.0785463,6.17181208 Z M26.9077765,10.7932886 L26.9077765,9.55302013 C26.3583431,10.0993289 25.346229,10.9409396 24.39195,10.9409396 C23.3942946,10.9409396 22.6568972,10.4389262 22.6568972,9.24295302 C22.6568972,7.73691275 24.4064088,6.96912752 26.9077765,6.06845638 C26.9077765,4.88724832 26.8788589,3.97181208 25.6932395,3.97181208 C24.5365377,3.97181208 23.8425166,4.79865772 23.1051192,5.92080537 L23.0039078,5.92080537 L23.0039078,3.55838926 L28.9609222,3.55838926 L28.6428292,4.82818792 L28.6428292,9.83355705 L28.657288,9.83355705 L29.7272372,10.7932886 L26.9077765,10.7932886 Z M26.9077765,9.15436242 L26.9077765,6.48187919 C24.6377491,7.41208054 24.5654553,8.04697987 24.5654553,8.7557047 C24.5654553,9.46442953 25.0425948,9.77449664 25.6498632,9.77449664 C26.0980852,9.77449664 26.5463072,9.53825503 26.9077765,9.15436242 Z M33.1105901,3.41073826 L33.1105901,4.4885906 C33.6744822,3.82416107 34.3829621,3.38120805 35.3083236,3.38120805 C36.363814,3.38120805 37.0289175,3.88322148 37.3036342,4.68053691 C37.8096913,3.97181208 38.7350528,3.38120805 39.6893318,3.38120805 C41.1641266,3.38120805 41.8581477,4.3557047 41.8581477,5.74362416 L41.8581477,9.52348993 L41.8726065,9.52348993 L42.9425557,10.7932886 L39.0676045,10.7932886 L40.123095,9.53825503 L40.123095,6.24563758 C40.123095,5.10872483 39.9640485,4.3852349 38.8507229,4.3852349 C38.3157483,4.3852349 37.8819852,4.62147651 37.4337632,5.13825503 C37.4626807,5.33020134 37.4771395,5.53691275 37.4771395,5.74362416 L37.4771395,9.52348993 L37.4915983,9.52348993 L38.5615475,10.7932886 L34.6865963,10.7932886 L35.7420868,9.53825503 L35.7420868,6.24563758 C35.7420868,5.10872483 35.5830403,4.3852349 34.4697147,4.3852349 C33.9636577,4.3852349 33.5443533,4.59194631 33.1105901,5.06442953 L33.1105901,9.52348993 L34.1805393,10.7932886 L30.3055881,10.7932886 L31.3755373,9.52348993 L31.3755373,5.53691275 L30.3923408,4.4 L33.1105901,3.41073826 Z M49.8972255,6.6147651 L49.8972255,6.6295302 L45.2559594,6.6295302 C45.4150059,8.53422819 46.4126612,9.33154362 47.5404455,9.33154362 C48.523642,9.33154362 49.3911684,8.8295302 49.60805,8.20939597 L49.8249316,8.29798658 C49.3044158,9.64161074 48.2778429,11 46.5572489,11 C44.6631497,11 43.5932005,9.27248322 43.5932005,7.50067114 C43.5932005,5.59597315 44.7499023,3.41073826 47.1066823,3.41073826 C48.8272763,3.41073826 49.8827667,4.59194631 49.8972255,6.5852349 L49.9116843,6.6147651 L49.8972255,6.6147651 Z M48.0320438,6.18657718 L48.0320438,6.05369128 C48.0320438,4.4738255 47.4103165,3.85369128 46.7741305,3.85369128 C45.6752638,3.85369128 45.2270418,5.19731544 45.2270418,6.08322148 L45.2270418,6.18657718 L48.0320438,6.18657718 Z M53.1793669,1.46174497 L53.1793669,3.55838926 L55.9554513,3.55838926 L55.6373583,4.3557047 L53.1793669,4.3557047 L53.1793669,7.98791946 C53.1793669,9.40536913 53.4974599,9.78926174 54.3505275,9.78926174 C54.7842907,9.78926174 55.4493943,9.56778523 55.7674873,8.93288591 L55.9409926,9.16912752 C55.2469715,10.3651007 54.4661977,10.9704698 53.2950371,10.9704698 C52.2973818,10.9704698 51.4443142,10.3798658 51.4443142,8.6966443 L51.4443142,4.4885906 L50.4900352,3.55838926 L53.1793669,1.46174497 Z M62.852286,6.17181208 L62.7366159,6.17181208 C62.1004299,4.62147651 61.2473623,4.10469799 60.5822587,4.10469799 C59.5846034,4.10469799 59.5846034,4.84295302 59.5846034,6.34899329 L59.5846034,9.52348993 L60.9292692,10.7932886 L56.7796014,10.7932886 L57.8495506,9.52348993 L57.8495506,4.69530201 L56.866354,3.55838926 L62.852286,3.55838926 L62.852286,6.17181208 Z M64.0812818,1.35838926 L65.3247362,0 L66.5537319,1.35838926 L65.3247362,2.73154362 L64.0812818,1.35838926 Z M63.5173896,4.4 L66.2356389,3.41073826 L66.2356389,9.52348993 L67.3055881,10.7932886 L63.430637,10.7932886 L64.5005862,9.52348993 L64.5005862,5.53691275 L63.5173896,4.4 Z M73.6529894,5.92080537 L73.551778,5.92080537 C73.045721,4.87248322 72.3950762,4.07516779 71.2817507,4.07516779 C70.1684252,4.07516779 69.7635795,5.12348993 69.7635795,6.12751678 C69.7635795,8.43087248 70.7756936,9.21342282 71.9179367,9.21342282 C72.915592,9.21342282 73.6674482,8.40134228 73.8409535,7.88456376 L74,7.94362416 C73.6963658,9.13959732 72.7131692,10.9704698 70.9202814,10.9704698 C69.0261821,10.9704698 68.1008206,9.24295302 68.1008206,7.47114094 C68.1008206,5.71409396 69.1563111,3.55838926 71.9179367,3.55838926 L73.6529894,3.55838926 L73.6529894,5.92080537 Z" class="" id="Parametric-Press"></path>
            <path d="M78.0534125,1.67288379 L77,2.84217094e-14 L80.3976261,2.84217094e-14 C81.4065282,2.84217094e-14 84.3293769,0.268292683 84.3293769,2.88809182 C84.3293769,4.82926829 82.6676558,5.91822095 81.1839763,6.12338594 C80.7388724,6.20229555 80.2195846,6.2338594 79.8931751,6.2338594 L79.8931751,9.13773314 L81.1543027,10.8106169 L77,10.8106169 L78.0534125,9.13773314 L78.0534125,1.67288379 Z M79.8931751,0.473457676 L79.8931751,5.69727403 C81.421365,5.69727403 82.3115727,4.84505022 82.3115727,3.07747489 C82.3115727,1.30989957 81.4065282,0.473457676 79.8931751,0.473457676 Z M91.1543027,5.52367288 L89.1958457,4.95552367 C88.9881306,5.05021521 87.727003,8.25394548 87.727003,9.84791966 L87.8456973,10.8106169 L86.0207715,10.8106169 L86.0207715,5.19225251 L85.0118694,3.97704448 L87.727003,2.91965567 L87.727003,7.93830703 C88.15727,6.17073171 88.884273,4.18220947 89.7596439,2.85652798 L89.9525223,2.85652798 L91.1988131,5.46054519 L91.1543027,5.52367288 Z M96.5400593,7.22812052 L96.7774481,7.38593974 C96.3916914,8.74318508 95.0860534,11 93.6468843,11 C92.3264095,11 91.4510386,9.94261119 91.4510386,7.84361549 C91.4510386,5.57101865 92.9643917,2.8723099 94.7893175,2.8723099 C96.1988131,2.8723099 96.6439169,4.37159254 96.6439169,4.68723099 L93.379822,7.67001435 C93.5133531,8.97991392 93.9139466,9.8794835 94.4480712,9.8794835 C95.5163205,9.8794835 96.5400593,7.22812052 96.5400593,7.22812052 Z M93.3501484,7.29124821 L95.0563798,5.57101865 C94.9821958,3.97704448 94.2403561,3.2195122 94.0474777,3.3615495 C93.7804154,3.53515065 93.3204748,4.05595409 93.3204748,6.58106169 C93.3204748,6.83357245 93.3353116,7.07030129 93.3501484,7.29124821 Z M101.510386,5.41319943 L101.421365,5.42898135 C100.857567,4.49784792 100.115727,3.83500717 99.462908,3.83500717 C99.0474777,3.83500717 98.9436202,4.04017217 98.9436202,4.43472023 C98.9436202,5.53945481 101.910979,6.77044476 101.910979,8.44332855 C101.910979,9.48493544 101.080119,10.8106169 99.1661721,10.8106169 L97.9495549,10.8106169 L97.5934718,8.1276901 L97.6379822,7.9856528 C98.4391691,9.23242468 99.1958457,10.2109039 100.05638,10.2109039 C100.501484,10.2109039 100.738872,10.0057389 100.738872,9.57962697 C100.738872,8.03299857 97.8160237,7.24390244 97.8160237,5.52367288 C97.8160237,4.40315638 98.7507418,3.07747489 100.382789,3.07747489 L101.436202,3.07747489 L101.510386,5.41319943 Z M106.599407,5.41319943 L106.510386,5.42898135 C105.946588,4.49784792 105.204748,3.83500717 104.551929,3.83500717 C104.136499,3.83500717 104.032641,4.04017217 104.032641,4.43472023 C104.032641,5.53945481 107,6.77044476 107,8.44332855 C107,9.48493544 106.169139,10.8106169 104.255193,10.8106169 L103.038576,10.8106169 L102.682493,8.1276901 L102.727003,7.9856528 C103.52819,9.23242468 104.284866,10.2109039 105.145401,10.2109039 C105.590504,10.2109039 105.827893,10.0057389 105.827893,9.57962697 C105.827893,8.03299857 102.905045,7.24390244 102.905045,5.52367288 C102.905045,4.40315638 103.839763,3.07747489 105.47181,3.07747489 L106.525223,3.07747489 L106.599407,5.41319943 Z" class="" id="Combined-Shape"></path>
        </g>
    </g>
</svg>